<?xml version="1.0" encoding="iso-8859-1"?>
<!-- Generator: Adobe Illustrator 21.0.0, SVG Export Plug-In . SVG Version: 6.00 Build 0)  -->
<svg version="1.1" id="Capa_1" xmlns="http://www.w3.org/2000/svg" xmlns:xlink="http://www.w3.org/1999/xlink" x="0px" y="0px"
	 viewBox="0 0 512 512" style="enable-background:new 0 0 512 512;" xml:space="preserve">
<circle style="fill:#FF0037;" cx="256" cy="256" r="256"/>
<path style="fill:#D30F0F;" d="M511.053,277.952L387.415,154.314L124.585,417l91.975,91.975C229.416,510.963,242.587,512,256,512
	C389.989,512,499.917,409.058,511.053,277.952z"/>
<polygon style="fill:#FFFFFF;" points="316.102,83 124.585,83 124.585,417 387.415,417 387.415,154.314 "/>
<polygon style="fill:#EBEBF0;" points="387.415,154.314 316.102,83 255.762,83 255.762,417 387.415,417 "/>
<polygon style="fill:#C8BEB9;" points="316.102,154.314 387.415,154.314 316.102,83 "/>
<polygon style="fill:#414952;" points="197.693,228.666 148.744,228.666 148.744,315.82 197.692,315.821 281.645,367.046 
	281.645,177.441 "/>
<polygon style="fill:#23272B;" points="148.744,270.19 148.744,315.82 197.692,315.821 281.645,367.046 281.645,270.19 "/>
<path style="fill:#00EDBF;" d="M306.064,315.141l-12.021-12.021c17.025-17.026,17.025-44.729,0-61.754l12.021-12.021
	C329.718,253,329.718,291.488,306.064,315.141z"/>
<path style="fill:#00BD9D;" d="M306.764,270.19c0.553,11.856-3.686,23.896-12.72,32.93l12.021,12.021
	c12.348-12.348,18.236-28.738,17.692-44.951H306.764z"/>
<path style="fill:#00EDBF;" d="M335.843,344.921L323.822,332.9c33.445-33.446,33.446-87.867,0.001-121.313l12.021-12.021
	C375.917,239.641,375.917,304.846,335.843,344.921z"/>
<path style="fill:#00BD9D;" d="M348.858,270.19c0.537,22.646-7.792,45.465-25.035,62.71l12.021,12.021
	c20.558-20.558,30.566-47.73,30.031-74.73L348.858,270.19L348.858,270.19z"/>
<g>
</g>
<g>
</g>
<g>
</g>
<g>
</g>
<g>
</g>
<g>
</g>
<g>
</g>
<g>
</g>
<g>
</g>
<g>
</g>
<g>
</g>
<g>
</g>
<g>
</g>
<g>
</g>
<g>
</g>
</svg>
