<svg height="512" viewBox="0 0 512 512" width="512" xmlns="http://www.w3.org/2000/svg"><g><g><g><path d="m496 84v292h-480v-292a19.994 19.994 0 0 1 20-20h440a19.994 19.994 0 0 1 20 20z" fill="#78b9eb"/><path d="m496 376v20a19.994 19.994 0 0 1 -20 20h-440a19.994 19.994 0 0 1 -20-20v-20z" fill="#e0e0e2"/><path d="m320 464h-128l16-48h96z" fill="#787680"/><path d="m152 464h208v24h-208z" fill="#e0e0e2"/></g><path d="m432 72v260a19.994 19.994 0 0 1 -20 20h-312a19.994 19.994 0 0 1 -20-20v-260z" fill="#006df0"/><path d="m432 44v28h-352v-28a19.994 19.994 0 0 1 20-20h312a19.994 19.994 0 0 1 20 20z" fill="#e0e0e2"/><path d="m112 104h224v111h-224z" fill="#ffda44"/><path d="m368 152h32v120h-32z" fill="#ff9811"/><path d="m400 112v40h-32v-40a16 16 0 1 1 32 0z" fill="#e0e0e2"/><path d="m368 272h32v16l-16 32-16-32z" fill="#e0e0e2"/><path d="m368 128h32v24h-32z" fill="#ffda44"/></g><g><path d="m476 56h-36v-12a28.031 28.031 0 0 0 -28-28h-312a28.031 28.031 0 0 0 -28 28v12h-36a28.031 28.031 0 0 0 -28 28v312a28.031 28.031 0 0 0 28 28h160.9l-10.67 32h-34.23a8 8 0 0 0 -8 8v24a8 8 0 0 0 8 8h208a8 8 0 0 0 8-8v-24a8 8 0 0 0 -8-8h-34.23l-10.67-32h160.9a28.031 28.031 0 0 0 28-28v-312a28.031 28.031 0 0 0 -28-28zm-388-12a12.01 12.01 0 0 1 12-12h312a12.01 12.01 0 0 1 12 12v20h-336zm0 36h336v252a12.01 12.01 0 0 1 -12 12h-312a12.01 12.01 0 0 1 -12-12zm264 392v8h-192v-8zm-148.9-16 10.67-32h84.46l10.67 32zm284.9-60a12.01 12.01 0 0 1 -12 12h-440a12.01 12.01 0 0 1 -12-12v-12h464zm0-28h-464v-284a12.01 12.01 0 0 1 12-12h36v260a28.031 28.031 0 0 0 28 28h312a28.031 28.031 0 0 0 28-28v-260h36a12.01 12.01 0 0 1 12 12z"/><path d="m120 40h-8a8 8 0 0 0 0 16h8a8 8 0 0 0 0-16z"/><path d="m152 40h-8a8 8 0 0 0 0 16h8a8 8 0 0 0 0-16z"/><path d="m184 40h-8a8 8 0 0 0 0 16h8a8 8 0 0 0 0-16z"/><path d="m112 223h224a8 8 0 0 0 8-8v-111a8 8 0 0 0 -8-8h-224a8 8 0 0 0 -8 8v111a8 8 0 0 0 8 8zm8-111h208v95h-208z"/><path d="m384 88a24.032 24.032 0 0 0 -24 24v176a8.081 8.081 0 0 0 .84 3.58l16 32a8.009 8.009 0 0 0 14.32 0l16-32a8.081 8.081 0 0 0 .84-3.58v-176a24.032 24.032 0 0 0 -24-24zm8 198.11-8 16-8-16v-6.11h16zm0-22.11h-16v-104h16zm0-120h-16v-8h16zm0-24h-16v-8a8 8 0 0 1 16 0z"/><path d="m112 248h224a8 8 0 0 0 0-16h-224a8 8 0 0 0 0 16z"/><path d="m112 272h224a8 8 0 0 0 0-16h-224a8 8 0 0 0 0 16z"/><path d="m112 296h224a8 8 0 0 0 0-16h-224a8 8 0 0 0 0 16z"/><path d="m112 320h80a8 8 0 0 0 0-16h-80a8 8 0 0 0 0 16z"/><path d="m224 304h-8a8 8 0 0 0 0 16h8a8 8 0 0 0 0-16z"/></g></g></svg>